# xmcd
#
# Track frame offsets: 
#        150
#        3583
#        6499
#        10717
#        20416
#        34786
#        40629
#        48963
#        63548
#        65065
#        71347
#        81362
#        83471
#        88786
#        99237
#        104419
#        116663
#        123331
#        135082
#        137778
#        153234
#        159965
#        178223
#        185100
#
# Disc length: 2623 seconds
#
# Revision: 0
# Processed by: cddbd v1.5.2PL0 Copyright (c) Steve Scherf et al.
# Submitted via: ExactAudioCopy v0.99pb5
#
DISCID=330a3d18
DTITLE=Soundtrack - Ghosts Of Girlfriends Past - Rolfe Kent
DYEAR=2009
DGENRE=Soundtrack
TTITLE0=Opening Title
TTITLE1=Kaiko Shoots Arrow
TTITLE2=Jenny and Connor Meet And Spar
TTITLE3=Uncle Wayne`s Room
TTITLE4=Uncle Wayne`s Apparition
TTITLE5=Jenny and Connor - Wedding Sex
TTITLE6=Ghost Of Girlfriend Past
TTITLE7=The Swings, Young Jenny
TTITLE8=Ignoring Jenny
TTITLE9=Why Woo When We Can Do?
TTITLE10=Leaving Before Dawn
TTITLE11=Bar Of Women
TTITLE12=Of Cork And Cake
TTITLE13=A Little Honesty
TTITLE14=Ghost Of Girlfriend Present
TTITLE15=Pauly`s Theme
TTITLE16=Rain Of Tears
TTITLE17=Conjuring The Ghost Of Future
TTITLE18=Panic At The Wrong Wedding
TTITLE19=Graveside Epiphany
TTITLE20=Connor Believes, But Too Late
TTITLE21=Pain Beats Regret
TTITLE22=Best Man Speech
TTITLE23=Jenny and Connor In The Snow
EXTD=
EXTT0=
EXTT1=
EXTT2=
EXTT3=
EXTT4=
EXTT5=
EXTT6=
EXTT7=
EXTT8=
EXTT9=
EXTT10=
EXTT11=
EXTT12=
EXTT13=
EXTT14=
EXTT15=
EXTT16=
EXTT17=
EXTT18=
EXTT19=
EXTT20=
EXTT21=
EXTT22=
EXTT23=
PLAYORDER=
